<svg width="320" height="48" viewBox="0 0 320 48" fill="none" xmlns="http://www.w3.org/2000/svg">
<g opacity="0.2">
<path d="M152.898 -7.04239C154.491 -6.50302 156.061 -5.7413 156.379 -5.19159C156.955 -4.19341 156.612 -2.91267 155.614 -2.33638C154.616 -1.76008 153.335 -2.10325 152.759 -3.10143C152.442 -3.64973 152.568 -5.39083 152.898 -7.04239ZM152.087 -8.44476C152.087 -8.44476 150.918 -4.07709 151.801 -2.54836C152.683 -1.01964 154.638 -0.495515 156.167 -1.37831C157.696 -2.26092 158.22 -4.21597 157.337 -5.74502C156.454 -7.27388 152.087 -8.44476 152.087 -8.44476Z" fill="white"/>
<path d="M178.142 -0.862733C179.14 -1.43903 180.421 -1.09586 180.997 -0.0976838C181.313 0.450115 181.188 2.19204 180.858 3.8431C179.265 3.30373 177.695 2.54201 177.377 1.9923C176.801 0.994303 177.144 -0.286435 178.142 -0.862733ZM177.589 -1.82098C176.06 -0.938371 175.536 1.01668 176.419 2.54572C177.301 4.07445 181.669 5.24547 181.669 5.24547C181.669 5.24547 182.838 0.877798 181.955 -0.65093C181.072 -2.17979 179.117 -2.70359 177.589 -1.82098Z" fill="white"/>
<path d="M145.946 17.7256C146.944 17.1493 148.225 17.4925 148.801 18.4907C149.117 19.0385 148.992 20.7804 148.662 22.4315C147.068 21.8923 145.498 21.1303 145.181 20.5805C144.605 19.5827 144.948 18.3019 145.946 17.7256ZM145.393 16.7674C143.864 17.65 143.34 19.6051 144.223 21.1341C145.105 22.6628 149.472 23.8338 149.472 23.8338C149.472 23.8338 150.642 19.4662 149.759 17.9374C148.876 16.4086 146.921 15.8848 145.393 16.7674Z" fill="white"/>
<path d="M203.238 6.53476C204.832 7.07413 206.402 7.83584 206.719 8.38556C207.296 9.38374 206.952 10.6645 205.954 11.2408C204.956 11.8171 203.675 11.4739 203.099 10.4757C202.783 9.92742 202.908 8.18601 203.238 6.53476ZM202.428 5.13239C202.428 5.13239 201.259 9.50006 202.141 11.0288C203.024 12.5575 204.979 13.0816 206.508 12.1988C208.037 11.316 208.561 9.36118 207.678 7.83213C206.795 6.30327 202.428 5.13239 202.428 5.13239Z" fill="white"/>
<path d="M171.362 24.9387C172.955 25.4781 174.526 26.2398 174.843 26.7895C175.419 27.7877 175.076 29.0684 174.078 29.6447C173.08 30.221 171.799 29.8778 171.223 28.8797C170.906 28.3314 171.032 26.5899 171.362 24.9387ZM170.552 23.5363C170.552 23.5363 169.382 27.904 170.265 29.4327C171.147 30.9614 173.102 31.4856 174.631 30.6028C176.16 29.7202 176.684 27.7651 175.801 26.2361C174.918 24.7072 170.552 23.5363 170.552 23.5363Z" fill="white"/>
<path d="M260.039 -5.50556C261.038 -6.08186 262.318 -5.73868 262.895 -4.7405C263.211 -4.1927 263.085 -2.45078 262.756 -0.799728C261.162 -1.33909 259.592 -2.1008 259.275 -2.65052C258.698 -3.64851 259.041 -4.92926 260.039 -5.50556ZM259.486 -6.46381C257.957 -5.5812 257.433 -3.62614 258.316 -2.09709C259.199 -0.568363 263.566 0.602643 263.566 0.602643C263.566 0.602643 264.735 -3.76502 263.853 -5.29375C262.97 -6.82229 261.015 -7.34642 259.486 -6.46381Z" fill="white"/>
<path d="M228.163 12.8985C229.161 12.3222 230.442 12.6654 231.018 13.6636C231.334 14.2114 231.209 15.9533 230.879 17.6043C229.286 17.065 227.716 16.3032 227.398 15.7535C226.822 14.7555 227.165 13.4748 228.163 12.8985ZM227.61 11.9402C226.081 12.8229 225.557 14.7779 226.44 16.307C227.322 17.8357 231.69 19.0067 231.69 19.0067C231.69 19.0067 232.859 14.639 231.976 13.1103C231.093 11.5818 229.138 11.0576 227.61 11.9402Z" fill="white"/>
<path d="M196.606 31.118C197.604 30.5417 198.885 30.8849 199.461 31.883C199.777 32.4308 199.652 34.1728 199.322 35.8238C197.729 35.2844 196.158 34.5227 195.841 33.973C195.264 32.975 195.608 31.6943 196.606 31.118ZM196.053 30.1597C194.524 31.0423 194 32.9974 194.883 34.5264C195.765 36.0552 200.132 37.2262 200.132 37.2262C200.132 37.2262 201.302 32.8585 200.419 31.3298C199.536 29.8012 197.581 29.2771 196.053 30.1597Z" fill="white"/>
<path d="M164.41 49.7062C165.408 49.1299 166.689 49.4731 167.265 50.4713C167.581 51.0191 167.456 52.761 167.126 54.4121C165.533 53.8732 163.962 53.1112 163.645 52.5615C163.069 51.5633 163.412 50.2825 164.41 49.7062ZM163.857 48.748C162.328 49.6306 161.804 51.5857 162.687 53.1147C163.569 54.6434 167.937 55.8144 167.937 55.8144C167.937 55.8144 169.106 51.4468 168.223 49.918C167.341 48.3895 165.385 47.8654 163.857 48.748Z" fill="white"/>
<path d="M285.775 1.52349C287.368 2.06286 288.939 2.82457 289.256 3.37429C289.832 4.37246 289.489 5.6532 288.491 6.2295C287.493 6.80579 286.212 6.46262 285.636 5.46445C285.32 4.91614 285.445 3.17455 285.775 1.52349ZM284.964 0.120791C284.964 0.120791 283.795 4.48846 284.678 6.01719C285.56 7.54591 287.515 8.07004 289.044 7.18724C290.573 6.30445 291.097 4.34958 290.214 2.82054C289.331 1.29199 284.964 0.120791 284.964 0.120791Z" fill="white"/>
<path d="M253.579 20.1117C255.173 20.6511 256.743 21.4128 257.06 21.9625C257.636 22.9607 257.293 24.2415 256.295 24.8177C255.297 25.394 254.016 25.0509 253.44 24.0527C253.124 23.5044 253.249 21.7628 253.579 20.1117ZM252.769 18.709C252.769 18.709 251.599 23.0767 252.482 24.6054C253.364 26.1342 255.319 26.6583 256.848 25.7755C258.377 24.8927 258.901 22.9378 258.019 21.4088C257.136 19.8802 252.769 18.709 252.769 18.709Z" fill="white"/>
<path d="M221.702 38.5157C223.296 39.055 224.866 39.8168 225.184 40.3665C225.76 41.3646 225.417 42.6454 224.419 43.2217C223.42 43.798 222.14 43.4548 221.563 42.4566C221.247 41.9083 221.373 40.1669 221.702 38.5157ZM220.892 37.113C220.892 37.113 219.723 41.4806 220.605 43.0094C221.488 44.5381 223.443 45.0622 224.972 44.1794C226.501 43.2966 227.025 41.3418 226.142 39.8127C225.259 38.2842 220.892 37.113 220.892 37.113Z" fill="white"/>
<path d="M310.7 7.88715C311.698 7.31085 312.978 7.65402 313.555 8.6522C313.871 9.2 313.746 10.9411 313.416 12.5925C311.822 12.0523 310.251 11.2905 309.935 10.7424C309.358 9.74419 309.701 8.46344 310.7 7.88715ZM310.146 6.9289C308.618 7.81151 308.093 9.76656 308.976 11.2956C309.859 12.8243 314.226 13.9954 314.226 13.9954C314.226 13.9954 315.396 9.62768 314.513 8.09895C313.63 6.57009 311.675 6.04629 310.146 6.9289Z" fill="white"/>
<path d="M278.504 26.4754C279.502 25.8991 280.782 26.2423 281.359 27.2405C281.675 27.7883 281.549 29.5294 281.22 31.1807C279.626 30.6406 278.055 29.8787 277.738 29.3306C277.162 28.3324 277.505 27.0517 278.504 26.4754ZM277.95 25.5171C276.422 26.3998 275.897 28.3548 276.78 29.8839C277.663 31.4126 282.03 32.5836 282.03 32.5836C282.03 32.5836 283.2 28.2159 282.317 26.6872C281.434 25.1583 279.479 24.6345 277.95 25.5171Z" fill="white"/>
<path d="M246.627 44.8793C247.625 44.303 248.906 44.6462 249.482 45.6444C249.799 46.1922 249.673 47.9333 249.344 49.5847C247.749 49.0445 246.178 48.2827 245.862 47.7346C245.286 46.7364 245.629 45.4556 246.627 44.8793ZM246.074 43.9211C244.545 44.8037 244.021 46.7588 244.904 48.2878C245.786 49.8165 250.154 50.9875 250.154 50.9875C250.154 50.9875 251.323 46.6199 250.441 45.0911C249.557 43.5623 247.603 43.0385 246.074 43.9211Z" fill="white"/>
<path d="M304.239 33.504C305.833 34.0434 307.403 34.8051 307.72 35.3548C308.296 36.353 307.953 37.6337 306.955 38.21C305.957 38.7863 304.676 38.4431 304.1 37.445C303.784 36.897 303.91 35.1554 304.239 33.504ZM303.429 32.1016C303.429 32.1016 302.259 36.4693 303.142 37.998C304.025 39.5267 305.98 40.0509 307.509 39.1681C309.038 38.2853 309.561 36.3304 308.679 34.8014C307.796 33.2723 303.429 32.1016 303.429 32.1016Z" fill="white"/>
<path d="M13.5245 8.89679C14.5227 8.32049 15.8034 8.66366 16.3797 9.66184C16.696 10.2096 16.5705 11.9516 16.241 13.6026C14.6472 13.0633 13.0772 12.3015 12.7598 11.7518C12.1832 10.7538 12.5263 9.47309 13.5245 8.89679ZM12.9713 7.93854C11.4425 8.82115 10.9184 10.7762 11.8012 12.3052C12.6838 13.834 17.0511 15.005 17.0511 15.005C17.0511 15.005 18.2206 10.6373 17.338 9.10859C16.4549 7.57973 14.5 7.05593 12.9713 7.93854Z" fill="white"/>
<path d="M70.4974 -2.10953C72.0912 -1.57017 73.6613 -0.808446 73.9786 -0.25873C74.5549 0.739446 74.2118 2.02018 73.2136 2.59648C72.2154 3.17278 70.9347 2.82961 70.3584 1.83143C70.0424 1.28345 70.1681 -0.458155 70.4974 -2.10953ZM69.6873 -3.5119C69.6873 -3.5119 68.5178 0.855767 69.4004 2.38449C70.283 3.91322 72.2381 4.43734 73.7672 3.55455C75.2962 2.67175 75.82 0.716886 74.9372 -0.81216C74.0543 -2.3407 69.6873 -3.5119 69.6873 -3.5119Z" fill="white"/>
<path d="M38.621 16.2943C40.2147 16.8336 41.7848 17.5954 42.1022 18.1451C42.6785 19.1433 42.3353 20.424 41.3371 21.0003C40.3389 21.5766 39.0582 21.2334 38.4819 20.2352C38.166 19.6873 38.2913 17.9458 38.621 16.2943ZM37.8109 14.8919C37.8109 14.8919 36.6414 19.2596 37.524 20.7883C38.4066 22.317 40.3616 22.8412 41.8907 21.9584C43.4197 21.0756 43.9435 19.1207 43.0607 17.5916C42.1778 16.0631 37.8109 14.8919 37.8109 14.8919Z" fill="white"/>
<path d="M6.74448 34.6982C8.33824 35.2376 9.90833 35.9993 10.2257 36.549C10.802 37.5472 10.4588 38.8279 9.46065 39.4042C8.46247 39.9805 7.18173 39.6374 6.60544 38.6392C6.28948 38.0912 6.41481 36.3498 6.74448 34.6982ZM5.9344 33.2958C5.9344 33.2958 4.7649 37.6635 5.64751 39.1922C6.53012 40.721 8.48517 41.2451 10.0142 40.3623C11.5429 39.4797 12.0671 37.5246 11.1843 35.9956C10.3013 34.467 5.9344 33.2958 5.9344 33.2958Z" fill="white"/>
<path d="M95.4222 4.25408C96.4204 3.67779 97.7011 4.02096 98.2774 5.01914C98.5937 5.56694 98.4682 7.30886 98.1387 8.95992C96.545 8.42055 94.9749 7.65884 94.6575 7.10912C94.0809 6.11113 94.424 4.83038 95.4222 4.25408ZM94.869 3.29584C93.3402 4.17845 92.8161 6.1335 93.6989 7.66255C94.5815 9.19128 98.9488 10.3623 98.9488 10.3623C98.9488 10.3623 100.118 5.99462 99.2357 4.46589C98.3526 2.93703 96.3977 2.41322 94.869 3.29584Z" fill="white"/>
<path d="M63.5455 22.658C64.5437 22.0817 65.8244 22.4249 66.4007 23.4231C66.717 23.9709 66.5915 25.7128 66.262 27.3638C64.6682 26.8245 63.0982 26.0628 62.7808 25.513C62.2042 24.5151 62.5473 23.2343 63.5455 22.658ZM62.9923 21.6998C61.4635 22.5824 60.9394 24.5374 61.8222 26.0665C62.7048 27.5952 67.0721 28.7662 67.0721 28.7662C67.0721 28.7662 68.2416 24.3986 67.359 22.8698C66.4759 21.341 64.521 20.8172 62.9923 21.6998Z" fill="white"/>
<path d="M31.9886 40.8775C32.9868 40.3012 34.2675 40.6444 34.8438 41.6426C35.1601 42.1904 35.0346 43.9323 34.7051 45.5833C33.1114 45.044 31.5413 44.2822 31.2239 43.7325C30.6473 42.7345 30.9904 41.4538 31.9886 40.8775ZM31.4354 39.9193C29.9066 40.8019 29.3825 42.7569 30.2653 44.286C31.1479 45.8147 35.5152 46.9857 35.5152 46.9857C35.5152 46.9857 36.6847 42.618 35.8021 41.0893C34.919 39.5604 32.9641 39.0366 31.4354 39.9193Z" fill="white"/>
<path d="M153.034 -7.121C154.628 -6.58164 156.198 -5.81992 156.515 -5.2702C157.091 -4.27203 156.748 -2.99129 155.75 -2.41499C154.752 -1.83869 153.471 -2.18187 152.895 -3.18004C152.579 -3.72835 152.704 -5.46963 153.034 -7.121ZM152.224 -8.52338C152.224 -8.52338 151.054 -4.15571 151.937 -2.62698C152.819 -1.09825 154.774 -0.574136 156.304 -1.45693C157.833 -2.33973 158.356 -4.29459 157.474 -5.82364C156.59 -7.3525 152.224 -8.52338 152.224 -8.52338Z" fill="white"/>
<path d="M121.157 11.2828C122.751 11.8222 124.321 12.5839 124.639 13.1336C125.215 14.1318 124.872 15.4125 123.873 15.9888C122.875 16.5651 121.595 16.2219 121.018 15.2238C120.702 14.6755 120.828 12.9342 121.157 11.2828ZM120.347 9.88043C120.347 9.88043 119.178 14.2481 120.06 15.7768C120.943 17.3056 122.898 17.8297 124.427 16.9469C125.956 16.0641 126.48 14.1092 125.597 12.5802C124.714 11.0513 120.347 9.88043 120.347 9.88043Z" fill="white"/>
<path d="M88.9615 29.8712C90.5553 30.4105 92.1254 31.1723 92.4427 31.722C93.019 32.7202 92.6759 34.0009 91.6777 34.5772C90.6795 35.1535 89.3988 34.8103 88.8225 33.8121C88.5063 33.2638 88.6322 31.5226 88.9615 29.8712ZM88.1514 28.4688C88.1514 28.4688 86.9819 32.8365 87.8645 34.3652C88.7472 35.8939 90.7022 36.4181 92.2313 35.5353C93.7603 34.6525 94.2841 32.6976 93.4013 31.1686C92.5182 29.6397 88.1514 28.4688 88.1514 28.4688Z" fill="white"/>
<path d="M57.0851 48.2751C58.6788 48.8145 60.2489 49.5762 60.5663 50.1259C61.1426 51.1241 60.7994 52.4048 59.8012 52.9811C58.8031 53.5574 57.5223 53.2143 56.946 52.2161C56.6299 51.6678 56.7554 49.9267 57.0851 48.2751ZM56.275 46.8727C56.275 46.8727 55.1055 51.2404 55.9881 52.7691C56.8707 54.2979 58.8257 54.822 60.3548 53.9392C61.8838 53.0564 62.4076 51.1015 61.5249 49.5725C60.6417 48.0436 56.275 46.8727 56.275 46.8727Z" fill="white"/>
<path d="M146.082 17.647C147.081 17.0707 148.361 17.4139 148.938 18.4121C149.254 18.9599 149.128 20.7018 148.799 22.3529C147.205 21.8135 145.635 21.0518 145.318 20.5021C144.741 19.5041 145.084 18.2233 146.082 17.647ZM145.529 16.6888C144 17.5714 143.476 19.5264 144.359 21.0555C145.242 22.5842 149.609 23.7552 149.609 23.7552C149.609 23.7552 150.778 19.3876 149.896 17.8588C149.013 16.33 147.058 15.8062 145.529 16.6888Z" fill="white"/>
<path d="M113.886 36.2353C114.885 35.659 116.165 36.0022 116.742 37.0003C117.058 37.5481 116.932 39.2901 116.603 40.9411C115.009 40.4018 113.439 39.64 113.122 39.0903C112.545 38.0923 112.888 36.8116 113.886 36.2353ZM113.333 35.277C111.804 36.1596 111.28 38.1147 112.163 39.6437C113.046 41.1725 117.413 42.3435 117.413 42.3435C117.413 42.3435 118.582 37.9758 117.7 36.4471C116.817 34.9182 114.862 34.3944 113.333 35.277Z" fill="white"/>
<path d="M171.498 24.86C173.092 25.3993 174.662 26.161 174.979 26.7108C175.556 27.7089 175.212 28.9897 174.214 29.566C173.216 30.1423 171.935 29.7991 171.359 28.8009C171.043 28.2526 171.169 26.511 171.498 24.86ZM170.688 23.4576C170.688 23.4576 169.519 27.8253 170.401 29.354C171.284 30.8827 173.239 31.4068 174.768 30.524C176.297 29.6412 176.821 27.6864 175.938 26.1573C175.055 24.6285 170.688 23.4576 170.688 23.4576Z" fill="white"/>
<path d="M139.622 43.2639C141.215 43.8033 142.786 44.565 143.103 45.1147C143.679 46.1129 143.336 47.3936 142.338 47.9699C141.34 48.5462 140.059 48.203 139.483 47.2048C139.166 46.6565 139.292 44.9149 139.622 43.2639ZM138.812 41.8615C138.812 41.8615 137.642 46.2292 138.525 47.7579C139.407 49.2866 141.362 49.8108 142.891 48.928C144.42 48.0452 144.944 46.0903 144.061 44.5613C143.178 43.0324 138.812 41.8615 138.812 41.8615Z" fill="white"/>
<path d="M164.546 49.6276C165.544 49.0513 166.825 49.3945 167.401 50.3927C167.718 50.9405 167.592 52.6824 167.263 54.3335C165.669 53.7941 164.099 53.0324 163.782 52.4827C163.205 51.4847 163.548 50.2039 164.546 49.6276ZM163.993 48.6694C162.464 49.552 161.94 51.507 162.823 53.0361C163.706 54.5648 168.073 55.7358 168.073 55.7358C168.073 55.7358 169.242 51.3682 168.36 49.8394C167.477 48.3109 165.522 47.7868 163.993 48.6694Z" fill="white"/>
</g>
</svg>
